<svg id="Layer_1" data-name="Layer 1" xmlns="http://www.w3.org/2000/svg" viewBox="0 0 1300 1300"><defs><style>.cls-1{fill:#be1e2d;}.cls-2{fill:#fbb040;}</style></defs><title>rogercoinv3_prints</title><circle cx="650" cy="650" r="631"/><path class="cls-1" d="M650,62A585,585,0,0,1,978.73,162.4a589.85,589.85,0,0,1,213.08,258.74,587.16,587.16,0,0,1-54.21,557.59,589.85,589.85,0,0,1-258.74,213.08,587.16,587.16,0,0,1-557.59-54.21A589.85,589.85,0,0,1,108.19,878.86,587.16,587.16,0,0,1,162.4,321.27,589.85,589.85,0,0,1,421.14,108.19,584.24,584.24,0,0,1,650,62m0-43C301.51,19,19,301.51,19,650s282.51,631,631,631,631-282.51,631-631S998.49,19,650,19Z"/><path class="cls-2" d="M650,42A604.93,604.93,0,0,1,989.91,145.81a609.92,609.92,0,0,1,220.33,267.54,607.14,607.14,0,0,1-56,576.56,609.92,609.92,0,0,1-267.54,220.33,607.14,607.14,0,0,1-576.56-56A609.92,609.92,0,0,1,89.76,886.65a607.14,607.14,0,0,1,56.05-576.56A609.92,609.92,0,0,1,413.35,89.76,604.2,604.2,0,0,1,650,42m0-42C291,0,0,291,0,650s291,650,650,650,650-291,650-650S1009,0,650,0Z"/><path class="cls-1" d="M279.77,334.5c4.48-15.48,12.31-27.14,26.06-35.8a37.3,37.3,0,0,0-4.11-4.7c-10.29-8.47-20.55-17-31.05-25.18-12.45-9.72-4.68-26.18,4.88-29.47,3.59-1.23,9.57.2,12.71,2.66,18.53,14.5,36.49,29.74,54.84,44.49,1.6,1.29,4.72,1.5,6.93,1.09,31.63-5.92,63.23-12,94.83-18.08l231-44.29,6.95-1.33c1.43,32.35-.93,63.72-9,94.68a343.27,343.27,0,0,1-26.68,70.65C635,413,620,435.16,603.81,456.54a463.19,463.19,0,0,1-51.72,57.88C521.75,543,488,567.08,450.45,585.31c-25.38,12.33-51.15,23.89-77,35.1-17.7,7.65-35.76,14.53-54,20.93-12.68,4.47-25.83,7.68-38.83,11.22-12.11,3.3-24.3,6.29-36.46,9.4-.88.22-1.8.26-4.4.61,87.76-61,161.32-133.66,218.57-222.09-.75-.78-1.51-1.56-2.26-2.35-2.61,2.42-5.42,4.65-7.8,7.28-20.31,22.43-40,45.47-61,67.26a233,233,0,0,1-66.91,48.69c-2-7.14-4.33-14.06-5.79-21.16-8.51-41.58-17-83.17-25.07-124.84-2.13-10.93-2.69-22.17-4.28-33.22-.23-1.64-1.88-3.35-3.29-4.51Q250.72,352.24,219.34,327c-8.17-6.58-8.33-16.42-.31-25.95,5.05-6,12.86-5.23,20.34,1C252.35,312.89,265.72,323.26,279.77,334.5Z"/><path class="cls-2" d="M358.06,698.61c8.5,9,17.11,17.9,25.35,27.13,12,13.41,23.75,27,35.18,40.86,6.54,7.93,12.94,16.15,18.09,25,3.84,6.58,6.38,14.53,0,21.52a30.2,30.2,0,0,1-8.6,6.56c-8.86,4.38-18.32,7.66-26.88,12.52-15.82,9-29.17,26.5-22.63,48.15,1.39,4.61,2.75,9.24,3.85,13.93,2.81,12.09,5.5,24.21,8.18,36.34,3.3,15,7.17,29.87,9.69,45,4.61,27.7,8.38,55.54,12.57,83.31a93,93,0,0,0,2.83,14.34c2.27,7.12,5.94,13.89,14.46,14.12,5.81.16,12.2-.53,17.41-2.88,11.25-5.07,22-11.3,32.8-17.34,15.37-8.59,15.3-17.58,9.91-30.1-9.1-21.17-19.49-41.79-29.16-62.72-3.28-7.09-6.26-14.35-8.87-21.72-.5-1.4,1-4.23,2.37-5.28.77-.59,4.15.65,4.88,1.92q7.86,13.58,15,27.55c8.42,16.45,16.52,33.06,25,49.49,3.14,6.1,16.77,11.48,22.73,8.91,23.4-10.11,31.23-32.85,18-53.57-7.91-12.39-16.35-24.44-24.56-36.63-5.94-8.8-10.88-17.95-9.18-30.66,1.3.19,1.5,1.7,2.29,2.77,6.71,9.06,13.41,18.13,20.33,27,7.38,9.48,14.51,19.22,22.65,28,7.4,8,19.11,8.92,25.91,2.29a51.69,51.69,0,0,0,11.2-15.84c5.2-11.93,7.6-24.71-.61-36.24-7.75-10.9-16.67-21-25.28-31.23-2.26-2.69-4.94-5-1.38-8.18s5.31.83,7.41,2.6c6.59,5.56,12.73,11.75,19.71,16.76,8.75,6.29,15.87,5.53,20.41-1.3,7.91-11.89,9.41-24.47,4.5-38.12-4.48-12.45-8-25.24-12.07-37.85-2.52-7.84-5.46-15.56-7.76-23.47-3.33-11.51-7.06-23-9.13-34.76-2.36-13.36,6-24.09,17.79-27.91L709.72,854.6c-10.83,5.64-20.87,10.57-30.6,16-7.23,4.06-16,6.17-20.21,14.49-3.23,6.32-2.62,12,3.16,18.8,4.5,5.25,11.14,6.7,17.07,3.7,16.56-8.36,33-16.93,49.61-25.23,1.72-.86,5.1-1.4,6-.45,9.58,9.88,18.81,20.09,28.6,30.71a20.22,20.22,0,0,1-2.79,2.46c-12.71,6.64-25.47,13.19-38.18,19.85-9.3,4.88-18.73,9.56-27.74,14.94-6.42,3.84-9.4,12.52-7.23,18,4.53,11.4,13.32,14.83,24.72,9.62,2.09-.95,4.17-1.92,6.21-3,21.7-11.32,43.36-22.73,65.18-33.81,1.76-.89,5.43-.28,6.94,1.06,4.27,3.8,7.79,8.42,11.76,12.57,9.26,9.68,18,20,28.08,28.74,14.73,12.71,33,13.94,51.32,11.74,20.4-2.45,40.78-5.44,61-9.28,39-7.42,77.93-15.53,116.85-23.51,8.61-1.77,14.3-7.27,16.86-15.7,2.79-9.22,0-17.19-6.67-23.6s-14-12-20.75-18.3q-32.48-30.13-64.68-60.57c-1.76-1.65-2.77-4.09-4.09-6.1,16.46-8.81,32-17,47.43-25.44,9-4.92,11.47-11.07,8.61-20.7-2.51-8.47-12.91-13.44-20.65-9.55-16.73,8.44-33.44,16.93-50,25.73-11.39,6-11.36,6.39-20-2.51-7.69-7.91-15.13-16.07-23.13-24.6,17-8.9,33.28-17.31,49.44-25.87,10-5.27,20.06-10.32,29.57-16.32,6.41-4,7.57-13.76,3.69-20.54-4.27-7.44-11.19-10.59-18.79-7.56-6.36,2.54-12.3,6.11-18.41,9.27C946.46,730.78,925,741.81,903.69,753c-3.47,1.82-5.7,1.66-8.42-1.52-18.79-22-37.8-43.85-56.66-65.81-1.28-1.49-1.91-3.52-2.58-4.79,7.72-5.93,14.89-11.29,21.91-16.84,23.44-18.55,44-39.77,57.88-66.49,7.64-14.73,14.69-30,19.88-45.69,7.16-21.66,9.3-44.39,9.37-67.23,0-3.09.59-4.87,4.13-5.59,11.22-2.29,22.33-5.05,33.52-7.49,9.35-2,15.17-10.41,13.25-19.77-1.52-7.41-9.08-15.25-19.34-12.68-11.09,2.78-22.46,4.46-34.54,6.77l-9.39-49a1.62,1.62,0,0,1,.69-.43c7.84-1.56,15.72-3,23.53-4.68a87.38,87.38,0,0,0,14.43-4c7.14-2.93,10.68-11.79,8.57-19.9-1.69-6.53-10-12.83-16.59-11.71-14.72,2.52-29.36,5.54-44.37,8.41a185.09,185.09,0,0,0-25.48-45.37c-17.33-23.06-38.88-41.27-64-55.64s-51.76-24-79.53-31l-10.27-2.27a136.61,136.61,0,0,0-24.28-2.9,10.12,10.12,0,0,0-8.7,5c-9,15-7.63,32.23-8.67,49-1.09,17.47-5.62,34.5-9.68,51.46-3.83,16-10.15,35-3.81,51.11,3.33,8.46,9.93,15,17.43,20.59l10.67,8.58c16.31,13.39,26.61,31.27,33,51.35A77.57,77.57,0,0,1,744.33,516c-6.62,17.75-16.5,32.93-34.7,40.66-6,2.54-12.59,3.63-18.87,5.48-14.76,4.35-29.33,9.43-44.28,13-13.38,3.15-27.14,4.72-40.76,6.81-16.32,2.5-32.48,1.43-48.69-.47l-13.58-3.73A111.53,111.53,0,0,1,524.27,568a10.08,10.08,0,0,0-10.18,0c-29.21,17.36-58.78,34.15-88.33,50.92-28.86,16.37-58.43,30.27-90.31,39.74-9,2.67-9.12,13.38-2.4,18.42l11.27,8.45Z"/></svg>